<mxfile host="Electron" agent="Mozilla/5.0 (Windows NT 10.0; Win64; x64) AppleWebKit/537.36 (KHTML, like Gecko) draw.io/24.7.8 Chrome/128.0.6613.36 Electron/32.0.1 Safari/537.36" version="24.7.8">
  <diagram name="Page-1" id="rSACrMOjPGrDDF2v7ryR">
    <mxGraphModel dx="1102" dy="767" grid="1" gridSize="10" guides="1" tooltips="1" connect="1" arrows="1" fold="1" page="1" pageScale="1" pageWidth="850" pageHeight="1100" math="0" shadow="0">
      <root>
        <mxCell id="0" />
        <mxCell id="1" parent="0" />
        <mxCell id="-Fss1Y71phs1WyGnkthU-21" style="rounded=0;orthogonalLoop=1;jettySize=auto;html=1;fillColor=#dae8fc;strokeColor=#6c8ebf;strokeWidth=2;" edge="1" parent="1" source="-Fss1Y71phs1WyGnkthU-1" target="-Fss1Y71phs1WyGnkthU-5">
          <mxGeometry relative="1" as="geometry" />
        </mxCell>
        <mxCell id="-Fss1Y71phs1WyGnkthU-1" value="API Gateway" style="image;aspect=fixed;html=1;points=[];align=center;fontSize=12;image=img/lib/azure2/networking/Application_Gateway_Containers.svg;" vertex="1" parent="1">
          <mxGeometry x="180" y="329.88" width="68" height="64.24" as="geometry" />
        </mxCell>
        <mxCell id="-Fss1Y71phs1WyGnkthU-4" style="edgeStyle=orthogonalEdgeStyle;rounded=0;orthogonalLoop=1;jettySize=auto;html=1;strokeWidth=2;fillColor=#dae8fc;strokeColor=#6c8ebf;" edge="1" parent="1" source="-Fss1Y71phs1WyGnkthU-2" target="-Fss1Y71phs1WyGnkthU-1">
          <mxGeometry relative="1" as="geometry" />
        </mxCell>
        <mxCell id="-Fss1Y71phs1WyGnkthU-2" value="Uporabnik" style="verticalLabelPosition=bottom;html=1;verticalAlign=top;align=center;strokeColor=none;fillColor=#00BEF2;shape=mxgraph.azure.user;" vertex="1" parent="1">
          <mxGeometry x="50" y="337" width="47.5" height="50" as="geometry" />
        </mxCell>
        <mxCell id="-Fss1Y71phs1WyGnkthU-14" style="edgeStyle=orthogonalEdgeStyle;rounded=0;orthogonalLoop=1;jettySize=auto;html=1;curved=1;entryX=0;entryY=0.803;entryDx=0;entryDy=0;entryPerimeter=0;fillColor=#ffe6cc;strokeColor=#d79b00;strokeWidth=2;" edge="1" parent="1" source="-Fss1Y71phs1WyGnkthU-6" target="-Fss1Y71phs1WyGnkthU-5">
          <mxGeometry relative="1" as="geometry">
            <Array as="points">
              <mxPoint x="459" y="540" />
              <mxPoint x="459" y="381" />
            </Array>
          </mxGeometry>
        </mxCell>
        <mxCell id="-Fss1Y71phs1WyGnkthU-12" style="edgeStyle=orthogonalEdgeStyle;rounded=0;orthogonalLoop=1;jettySize=auto;html=1;curved=1;exitX=-0.041;exitY=0.745;exitDx=0;exitDy=0;exitPerimeter=0;fillColor=#ffe6cc;strokeColor=#d79b00;strokeWidth=2;" edge="1" parent="1" source="-Fss1Y71phs1WyGnkthU-8" target="-Fss1Y71phs1WyGnkthU-5">
          <mxGeometry relative="1" as="geometry" />
        </mxCell>
        <mxCell id="-Fss1Y71phs1WyGnkthU-16" style="edgeStyle=orthogonalEdgeStyle;rounded=0;orthogonalLoop=1;jettySize=auto;html=1;curved=1;entryX=0.853;entryY=-0.012;entryDx=0;entryDy=0;entryPerimeter=0;exitX=0.065;exitY=0.479;exitDx=0;exitDy=0;exitPerimeter=0;fillColor=#ffe6cc;strokeColor=#d79b00;strokeWidth=2;startArrow=classic;startFill=1;" edge="1" parent="1" source="-Fss1Y71phs1WyGnkthU-8" target="-Fss1Y71phs1WyGnkthU-9">
          <mxGeometry relative="1" as="geometry">
            <mxPoint x="620" y="117" as="sourcePoint" />
          </mxGeometry>
        </mxCell>
        <mxCell id="-Fss1Y71phs1WyGnkthU-8" value="Schedule" style="image;aspect=fixed;html=1;points=[];align=center;fontSize=12;image=img/lib/azure2/other/Worker_Container_App.svg;" vertex="1" parent="1">
          <mxGeometry x="600" y="60" width="68" height="66" as="geometry" />
        </mxCell>
        <mxCell id="-Fss1Y71phs1WyGnkthU-10" style="edgeStyle=orthogonalEdgeStyle;rounded=0;orthogonalLoop=1;jettySize=auto;html=1;curved=1;startArrow=classic;startFill=1;fillColor=#ffe6cc;strokeColor=#d79b00;strokeWidth=2;" edge="1" parent="1" source="-Fss1Y71phs1WyGnkthU-9" target="-Fss1Y71phs1WyGnkthU-6">
          <mxGeometry relative="1" as="geometry" />
        </mxCell>
        <mxCell id="-Fss1Y71phs1WyGnkthU-11" style="edgeStyle=orthogonalEdgeStyle;rounded=0;orthogonalLoop=1;jettySize=auto;html=1;curved=1;exitX=0.994;exitY=0.8;exitDx=0;exitDy=0;exitPerimeter=0;entryX=0.235;entryY=-0.009;entryDx=0;entryDy=0;entryPerimeter=0;fillColor=#ffe6cc;strokeColor=#d79b00;strokeWidth=2;startArrow=classic;startFill=1;" edge="1" parent="1" source="-Fss1Y71phs1WyGnkthU-9" target="-Fss1Y71phs1WyGnkthU-5">
          <mxGeometry relative="1" as="geometry" />
        </mxCell>
        <mxCell id="-Fss1Y71phs1WyGnkthU-9" value="Class" style="image;aspect=fixed;html=1;points=[];align=center;fontSize=12;image=img/lib/azure2/other/Worker_Container_App.svg;" vertex="1" parent="1">
          <mxGeometry x="360" y="150" width="68" height="66" as="geometry" />
        </mxCell>
        <mxCell id="-Fss1Y71phs1WyGnkthU-17" style="edgeStyle=orthogonalEdgeStyle;rounded=0;orthogonalLoop=1;jettySize=auto;html=1;curved=1;fillColor=#ffe6cc;strokeColor=#d79b00;strokeWidth=2;" edge="1" parent="1" source="-Fss1Y71phs1WyGnkthU-36" target="-Fss1Y71phs1WyGnkthU-7">
          <mxGeometry relative="1" as="geometry" />
        </mxCell>
        <mxCell id="-Fss1Y71phs1WyGnkthU-18" style="edgeStyle=orthogonalEdgeStyle;rounded=0;orthogonalLoop=1;jettySize=auto;html=1;entryX=-0.029;entryY=0.642;entryDx=0;entryDy=0;entryPerimeter=0;curved=1;fillColor=#dae8fc;strokeColor=#6c8ebf;strokeWidth=2;" edge="1" parent="1" source="-Fss1Y71phs1WyGnkthU-1" target="-Fss1Y71phs1WyGnkthU-9">
          <mxGeometry relative="1" as="geometry">
            <Array as="points">
              <mxPoint x="310" y="362" />
              <mxPoint x="310" y="192" />
            </Array>
          </mxGeometry>
        </mxCell>
        <mxCell id="-Fss1Y71phs1WyGnkthU-20" style="edgeStyle=orthogonalEdgeStyle;rounded=0;orthogonalLoop=1;jettySize=auto;html=1;entryX=-0.006;entryY=0.25;entryDx=0;entryDy=0;entryPerimeter=0;curved=1;fillColor=#dae8fc;strokeColor=#6c8ebf;strokeWidth=2;" edge="1" parent="1" source="-Fss1Y71phs1WyGnkthU-1" target="-Fss1Y71phs1WyGnkthU-7">
          <mxGeometry relative="1" as="geometry">
            <Array as="points">
              <mxPoint x="340" y="362" />
              <mxPoint x="340" y="280" />
            </Array>
          </mxGeometry>
        </mxCell>
        <mxCell id="-Fss1Y71phs1WyGnkthU-22" style="edgeStyle=orthogonalEdgeStyle;rounded=0;orthogonalLoop=1;jettySize=auto;html=1;entryX=-0.006;entryY=0.376;entryDx=0;entryDy=0;entryPerimeter=0;curved=1;fillColor=#dae8fc;strokeColor=#6c8ebf;strokeWidth=2;" edge="1" parent="1" source="-Fss1Y71phs1WyGnkthU-1" target="-Fss1Y71phs1WyGnkthU-6">
          <mxGeometry relative="1" as="geometry" />
        </mxCell>
        <mxCell id="-Fss1Y71phs1WyGnkthU-23" style="edgeStyle=orthogonalEdgeStyle;rounded=0;orthogonalLoop=1;jettySize=auto;html=1;entryX=-0.018;entryY=0.127;entryDx=0;entryDy=0;entryPerimeter=0;curved=1;fillColor=#dae8fc;strokeColor=#6c8ebf;strokeWidth=2;" edge="1" parent="1" source="-Fss1Y71phs1WyGnkthU-1" target="-Fss1Y71phs1WyGnkthU-8">
          <mxGeometry relative="1" as="geometry">
            <Array as="points">
              <mxPoint x="470" y="362" />
              <mxPoint x="470" y="68" />
            </Array>
          </mxGeometry>
        </mxCell>
        <mxCell id="-Fss1Y71phs1WyGnkthU-35" style="edgeStyle=orthogonalEdgeStyle;rounded=0;orthogonalLoop=1;jettySize=auto;html=1;endArrow=none;endFill=0;fillColor=#e1d5e7;strokeColor=#9673a6;strokeWidth=2;" edge="1" parent="1" source="-Fss1Y71phs1WyGnkthU-26" target="-Fss1Y71phs1WyGnkthU-6">
          <mxGeometry relative="1" as="geometry" />
        </mxCell>
        <mxCell id="-Fss1Y71phs1WyGnkthU-26" value="" style="image;aspect=fixed;html=1;points=[];align=center;fontSize=12;image=img/lib/azure2/databases/Azure_Database_PostgreSQL_Server.svg;" vertex="1" parent="1">
          <mxGeometry x="370" y="620" width="48" height="64" as="geometry" />
        </mxCell>
        <mxCell id="-Fss1Y71phs1WyGnkthU-34" style="edgeStyle=orthogonalEdgeStyle;rounded=0;orthogonalLoop=1;jettySize=auto;html=1;endArrow=none;endFill=0;fillColor=#e1d5e7;strokeColor=#9673a6;strokeWidth=2;" edge="1" parent="1" source="-Fss1Y71phs1WyGnkthU-27" target="-Fss1Y71phs1WyGnkthU-5">
          <mxGeometry relative="1" as="geometry" />
        </mxCell>
        <mxCell id="-Fss1Y71phs1WyGnkthU-27" value="" style="image;aspect=fixed;html=1;points=[];align=center;fontSize=12;image=img/lib/azure2/databases/Azure_Database_PostgreSQL_Server.svg;" vertex="1" parent="1">
          <mxGeometry x="500" y="430" width="48" height="64" as="geometry" />
        </mxCell>
        <mxCell id="-Fss1Y71phs1WyGnkthU-33" style="edgeStyle=orthogonalEdgeStyle;rounded=0;orthogonalLoop=1;jettySize=auto;html=1;endArrow=none;endFill=0;fillColor=#e1d5e7;strokeColor=#9673a6;strokeWidth=2;" edge="1" parent="1" source="-Fss1Y71phs1WyGnkthU-28" target="-Fss1Y71phs1WyGnkthU-7">
          <mxGeometry relative="1" as="geometry" />
        </mxCell>
        <mxCell id="-Fss1Y71phs1WyGnkthU-28" value="" style="image;aspect=fixed;html=1;points=[];align=center;fontSize=12;image=img/lib/azure2/databases/Azure_Database_PostgreSQL_Server.svg;" vertex="1" parent="1">
          <mxGeometry x="730" y="366" width="48" height="64" as="geometry" />
        </mxCell>
        <mxCell id="-Fss1Y71phs1WyGnkthU-32" style="edgeStyle=orthogonalEdgeStyle;rounded=0;orthogonalLoop=1;jettySize=auto;html=1;endArrow=none;endFill=0;fillColor=#e1d5e7;strokeColor=#9673a6;strokeWidth=2;" edge="1" parent="1" source="-Fss1Y71phs1WyGnkthU-29" target="-Fss1Y71phs1WyGnkthU-8">
          <mxGeometry relative="1" as="geometry" />
        </mxCell>
        <mxCell id="-Fss1Y71phs1WyGnkthU-29" value="" style="image;aspect=fixed;html=1;points=[];align=center;fontSize=12;image=img/lib/azure2/databases/Azure_Database_PostgreSQL_Server.svg;" vertex="1" parent="1">
          <mxGeometry x="700" y="61" width="48" height="64" as="geometry" />
        </mxCell>
        <mxCell id="-Fss1Y71phs1WyGnkthU-31" style="edgeStyle=orthogonalEdgeStyle;rounded=0;orthogonalLoop=1;jettySize=auto;html=1;endArrow=none;endFill=0;fillColor=#e1d5e7;strokeColor=#9673a6;strokeWidth=2;" edge="1" parent="1" source="-Fss1Y71phs1WyGnkthU-30" target="-Fss1Y71phs1WyGnkthU-9">
          <mxGeometry relative="1" as="geometry" />
        </mxCell>
        <mxCell id="-Fss1Y71phs1WyGnkthU-30" value="" style="image;aspect=fixed;html=1;points=[];align=center;fontSize=12;image=img/lib/azure2/databases/Azure_Database_PostgreSQL_Server.svg;" vertex="1" parent="1">
          <mxGeometry x="370" y="50" width="48" height="64" as="geometry" />
        </mxCell>
        <mxCell id="-Fss1Y71phs1WyGnkthU-38" style="edgeStyle=orthogonalEdgeStyle;rounded=0;orthogonalLoop=1;jettySize=auto;html=1;fillColor=#ffe6cc;strokeColor=#d79b00;strokeWidth=2;curved=1;" edge="1" parent="1" source="-Fss1Y71phs1WyGnkthU-7" target="-Fss1Y71phs1WyGnkthU-5">
          <mxGeometry relative="1" as="geometry" />
        </mxCell>
        <mxCell id="-Fss1Y71phs1WyGnkthU-7" value="Communication" style="image;aspect=fixed;html=1;points=[];align=center;fontSize=12;image=img/lib/azure2/other/Worker_Container_App.svg;" vertex="1" parent="1">
          <mxGeometry x="720" y="263.88" width="68" height="66" as="geometry" />
        </mxCell>
        <mxCell id="-Fss1Y71phs1WyGnkthU-5" value="Users" style="image;aspect=fixed;html=1;points=[];align=center;fontSize=12;image=img/lib/azure2/other/Worker_Container_App.svg;" vertex="1" parent="1">
          <mxGeometry x="490" y="328.12" width="68" height="66" as="geometry" />
        </mxCell>
        <mxCell id="-Fss1Y71phs1WyGnkthU-6" value="Classroom" style="image;aspect=fixed;html=1;points=[];align=center;fontSize=12;image=img/lib/azure2/other/Worker_Container_App.svg;" vertex="1" parent="1">
          <mxGeometry x="360" y="520" width="68" height="66" as="geometry" />
        </mxCell>
        <mxCell id="-Fss1Y71phs1WyGnkthU-37" value="" style="edgeStyle=orthogonalEdgeStyle;rounded=0;orthogonalLoop=1;jettySize=auto;html=1;curved=1;fillColor=#ffe6cc;strokeColor=#d79b00;strokeWidth=2;" edge="1" parent="1" source="-Fss1Y71phs1WyGnkthU-9" target="-Fss1Y71phs1WyGnkthU-36">
          <mxGeometry relative="1" as="geometry">
            <mxPoint x="428" y="183" as="sourcePoint" />
            <mxPoint x="738" y="266" as="targetPoint" />
          </mxGeometry>
        </mxCell>
        <mxCell id="-Fss1Y71phs1WyGnkthU-36" value="Service Bus" style="image;aspect=fixed;html=1;points=[];align=center;fontSize=12;image=img/lib/azure2/integration/Service_Bus.svg;" vertex="1" parent="1">
          <mxGeometry x="723.4" y="156" width="61.2" height="54" as="geometry" />
        </mxCell>
        <mxCell id="-Fss1Y71phs1WyGnkthU-39" style="edgeStyle=orthogonalEdgeStyle;rounded=0;orthogonalLoop=1;jettySize=auto;html=1;entryX=0.003;entryY=0.778;entryDx=0;entryDy=0;entryPerimeter=0;fillColor=#ffe6cc;strokeColor=#d79b00;strokeWidth=2;curved=1;" edge="1" parent="1" source="-Fss1Y71phs1WyGnkthU-6" target="-Fss1Y71phs1WyGnkthU-36">
          <mxGeometry relative="1" as="geometry">
            <Array as="points">
              <mxPoint x="610" y="553" />
              <mxPoint x="610" y="198" />
            </Array>
          </mxGeometry>
        </mxCell>
      </root>
    </mxGraphModel>
  </diagram>
</mxfile>
